.


[color=green]Movies : Animation : HD1080p :Arabic[/color]

 


[img]http://img443.imageshack.us/img443/402/00tangledeverafter29837.jpg[/img]





[img]http://img219.imageshack.us/img219/462/imdbt.png[/img]
[color=red]IMDB:[/color] 
http://www.imdb.com/title/tt2112281/
[color=green]Genre:[/color]Animation | Short | Action  
[color='ff0000']Source:[/color]Blu-ray Disc 7 GIB 
[color=red]Language:[/color]Arabic
File size  : 1.39 GiB
Duration : 6 MN
Overall bit rate :29.7 Mbps
[color=green]Encoder:[/color]alrmothe

[img]http://i.imgur.com/fXeWi.png[/img]
[img]http://img251.imageshack.us/img251/2539/general3y.png[/img]
[color=red]Video Information[/color]
Format :Matroska
Format : AVC
Format profile : High@L4.1
Video Bit rate : 28.4 Mbps
Maximum bit rate : 33.0 Mbps
Display aspect ratio : 16:9
Frame Rate: 23.976 fps
Bit depth : 8 bits
Scan type : Progressive
Bits/(Pixel*Frame): 0.572
Stream size : 1.29 GiB (97%)
[color=green]Resolution:1920x180[/color]


[color=navy]Audio Information:[/color]
Format : AC-3
Bit rate mode : Constant
Bit rate : 640 Kbps
Channel(s) : 6 channels
Channel positions:Front: L C R, Side:L R,LFE
Sampling rate : 48.0 KHz
Bit depth : 16 bits
Compression mode : Lossy
Stream size : 29.7 MiB  (2%)



[color=green]╪º┘ä┘ü┘è┘ä┘à ╪╣╪¿╪º╪▒╪⌐ ╪╣┘å ┘ü┘è┘ä┘à ┘é╪╡┘è╪▒[/color]



[color=red]Screenshots[/color]
 
http://img42.imageshack.us/img42/7868/67365284.png
 
http://img534.imageshack.us/img534/9042/42501355.png
 
http://img507.imageshack.us/img507/3303/69086460.png





3 ┘ê┘è╪╣┘à┘ä ╪╣┘ä┘ë ┘à┘è╪»┘è╪º ╪│┘è┘ü╪▒ ╪¿┘ä╪º┘è ╪│╪¬┘è╪┤┘å

You can play movie on PlayStation 3 Media Server




kmplayer ┘ä╪ú┘ü╪╢┘ä ╪¼┘ê╪»╪⌐ ╪º╪│╪¬╪«╪»┘à ╪¿╪▒┘å╪º┘à╪¼ 

For Best quality used kmplayer 3.3.0.33 
http://kmplayer.en.softonic.com/







Trailer






.


.